<?xml version="1.0" encoding="UTF-8" standalone="no"?><!DOCTYPE svg PUBLIC "-//W3C//DTD SVG 1.1//EN" "http://www.w3.org/Graphics/SVG/1.1/DTD/svg11.dtd"><svg width="100%" height="100%" viewBox="0 0 740 480" version="1.1" xmlns="http://www.w3.org/2000/svg" xmlns:xlink="http://www.w3.org/1999/xlink" xml:space="preserve" xmlns:serif="http://www.serif.com/" style="fill-rule:evenodd;clip-rule:evenodd;stroke-linejoin:round;stroke-miterlimit:1.5;"><rect id="Artboard1" x="0" y="0" width="740" height="480" style="fill:none;"/><clipPath id="_clip1"><rect x="0" y="0" width="740" height="480"/></clipPath><g clip-path="url(#_clip1)"><path d="M0,0l0,140l240,0l0,-100l100,0l-0,100l400,0l-500,-140l-240,0Z" style="fill:#08487d;"/><path d="M0,480l0,-140l240,0l0,100l100,0l-0,-100l400,0l-500,140l-240,0Z" style="fill:#08487d;"/><path d="M40,140l200,0l0,-100l100,0l0,100l300,0l0,200l-300,0l-0,100l-100,0l-0,-100l-200,0l0,-200Z" style="fill:#a8a8a8;"/><path d="M140,140l0,200" style="fill:none;stroke:#8a8a8a;stroke-width:5px;"/><path d="M240,140l0,200" style="fill:none;stroke:#8a8a8a;stroke-width:5px;"/><path d="M340,140l0,200" style="fill:none;stroke:#8a8a8a;stroke-width:5px;"/><path d="M440,140l0,200" style="fill:none;stroke:#8a8a8a;stroke-width:5px;"/><path d="M540,140l0,200" style="fill:none;stroke:#8a8a8a;stroke-width:5px;"/><path d="M640,140l0,200" style="fill:none;stroke:#8a8a8a;stroke-width:5px;"/><path d="M640,140l-600,0" style="fill:none;stroke:#8a8a8a;stroke-width:5px;"/><path d="M40,340l600,0" style="fill:none;stroke:#8a8a8a;stroke-width:5px;"/><path d="M40,240l600,0" style="fill:none;stroke:#8a8a8a;stroke-width:5px;"/><path d="M40,140l0,200" style="fill:none;stroke:#8a8a8a;stroke-width:5px;"/><path d="M240,140l0,-100l100,0l0,100" style="fill:none;stroke:#8a8a8a;stroke-width:5px;"/><path d="M240,340l0,100l100,0l0,-100" style="fill:none;stroke:#8a8a8a;stroke-width:5px;"/></g></svg>